<?xml version="1.0" encoding="UTF-8"?>
<svg id="Layer_1" data-name="Layer 1" xmlns="http://www.w3.org/2000/svg" viewBox="0 0 566.93 566.93">
  <defs>
    <style>
      .cls-1 {
        fill: #e85002;
      }
    </style>
  </defs>
  <g>
    <polygon class="cls-1" points="364.01 348.02 364.01 348.02 313.87 348.02 305.59 328.7 350.89 328.7 355.49 314.44 305.13 314.44 282.59 261.54 395.73 261.54 388.83 280.86 311.19 280.86 316.83 295.12 382.87 295.12 364.01 348.02"/>
    <polygon class="cls-1" points="454.83 218.9 415.49 218.9 369.5 348.02 390.23 348.02 429.73 237.62 446.81 237.62 454.83 218.9"/>
  </g>
  <g>
    <polygon class="cls-1" points="127.74 307.08 127.74 271.91 119.76 271.91 119.77 299.99 112.1 299.99 112.1 307.08 119.18 307.08 127.74 307.08"/>
    <path class="cls-1" d="m180.25,293.6h69.25v-7.32h-11.84c-1.09-1.24-1.63-2.72-1.63-4.43,0-3.23,1.52-4.85,4.57-4.85,1.68,0,4.05.71,7.13,2.14l.37-7.69c-1.12-.5-2.46-.92-4.03-1.26-1.57-.34-2.91-.51-4.03-.51-1.46,0-3.1.3-4.92.91-1.82.61-3.46,1.79-4.92,3.54-1.46,1.76-2.19,4.23-2.19,7.43,0,1.43.19,3,.56,4.71h-51.67s0-.17.03-1.86v-2.47c0-2.73-.23-4.91-.7-6.52-.47-1.62-1.58-2.94-3.36-3.96-1.77-1.03-4.51-1.54-8.2-1.54-2.3,0-4.35.18-6.15.54-1.8.36-3.14.75-4.01,1.19,0,1.56.06,5.13.06,5.13v5.08s-.01.28-.02,4.43h-13.08v-24.75h-8.02v32.06h46.79Zm-11.32-7.32h-8.06l-.06-2.05.02-2.46.09-4.38c1.06-.25,1.95-.29,3.13-.29,1.55,0,2.69.21,3.4.63.71.42,1.14.92,1.28,1.51.14.59.21,1.43.21,2.52v4.52Z"/>
    <rect class="cls-1" x="254.3" y="261.54" width="8.02" height="32.06"/>
    <path class="cls-1" d="m252.95,308.56l10.67-2.1-.75-3.31-4.85,1.26c-.4-.22-.71-.51-.91-.86-.2-.36-.3-.74-.3-1.14,0-.59.2-1.1.61-1.54.4-.44.93-.65,1.58-.65.4,0,.77.07,1.1.21.33.14.58.27.77.4l.7-3.45c-1.27-.75-2.55-1.12-3.82-1.12-1.55,0-2.82.5-3.8,1.49-.98.99-1.47,2.17-1.47,3.54,0,.75.16,1.48.49,2.19.33.71.82,1.34,1.47,1.86l-2.05.56.56,2.66Z"/>
    <polygon class="cls-1" points="112.1 348.03 133.72 348.03 133.72 340.62 120.61 340.62 120.61 335.6 130.85 335.6 130.85 328.33 120.61 328.33 120.61 323.3 133.72 323.3 133.72 315.89 112.1 315.89 112.1 348.03"/>
    <polygon class="cls-1" points="156.24 335.02 152.94 315.89 138.64 315.89 138.64 348.03 147.16 348.03 147.16 325.55 147.63 325.55 152.13 346.45 160.36 346.45 164.81 325.55 165.33 325.55 165.33 348.03 173.85 348.03 173.85 315.89 159.54 315.89 156.24 335.02"/>
    <path class="cls-1" d="m183.79,315.89l-6.17,32.14h8.61l.62-4.11h9.37l.62,4.11h8.61l-6.17-32.14h-15.5Zm4.5,20.66l2.2-13.68h2.1l2.2,13.68h-6.5Z"/>
    <path class="cls-1" d="m212.78,315.89l-6.17,32.14h8.61l.62-4.11h9.37l.62,4.11h8.61l-6.17-32.14h-15.5Zm4.5,20.66l2.2-13.68h2.1l2.2,13.68h-6.5Z"/>
    <path class="cls-1" d="m263.19,327.03c0-3.67-1.01-6.44-3.04-8.32-2.03-1.88-5.05-2.82-9.06-2.82h-12.87v32.14h8.51v-9.71h4.35l2.34,9.71h9.33l-3.49-11.77c2.61-2.49,3.92-5.56,3.92-9.23Zm-9.59,2.85c-.56.78-1.35,1.17-2.37,1.17h-4.5v-7.94h4.35c.99,0,1.79.38,2.42,1.15.62.77.93,1.69.93,2.77s-.28,2.06-.84,2.85Z"/>
  </g>
</svg>
